<?xml version="1.0" encoding="UTF-8"?>
<!DOCTYPE svg
PUBLIC "-//W3C//DTD SVG 1.1//EN"
       "http://www.w3.org/Graphics/SVG/1.1/DTD/svg11.dtd">
<svg viewBox="72 25 1431 695" width="1359px" height="670px" xmlns="http://www.w3.org/2000/svg" version="1.1" style='background: white'>
   <line x1="1210" y1="504" x2="1200" y2="504" style="stroke:#333;stroke-width:1;"/>
   <line x1="856" y1="530" x2="846" y2="530" style="stroke:#333;stroke-width:1;"/>
   <line x1="1200" y1="504" x2="856" y2="530" style="stroke:#333;stroke-width:1;"/>
   <line x1="1202.5" y1="504" x2="1206.0355339059" y2="507.53553390593" style="stroke:#333;stroke-width:2;"/>
   <line x1="1202.5" y1="504" x2="1206.0355339059" y2="500.46446609407" style="stroke:#333;stroke-width:2;"/>
   <line x1="851" y1="530" x2="854.53553390593" y2="533.53553390593" style="stroke:#333;stroke-width:2;"/>
   <line x1="851" y1="530" x2="854.53553390593" y2="526.46446609407" style="stroke:#333;stroke-width:2;"/>
   <line x1="606" y1="206" x2="596" y2="206" style="stroke:#0bf;stroke-width:1;"/>
   <line x1="596" y1="166" x2="606" y2="166" style="stroke:#0bf;stroke-width:1;"/>
   <line x1="596" y1="206" x2="596" y2="166" style="stroke:#0bf;stroke-width:1;"/>
   <line x1="598.5" y1="206" x2="602.03553390593" y2="209.53553390593" style="stroke:#0bf;stroke-width:2;"/>
   <line x1="598.5" y1="206" x2="602.03553390593" y2="202.46446609407" style="stroke:#0bf;stroke-width:2;"/>
   <line x1="601" y1="166" x2="597.46446609407" y2="169.53553390593" style="stroke:#0bf;stroke-width:2;"/>
   <line x1="601" y1="166" x2="597.46446609407" y2="162.46446609407" style="stroke:#0bf;stroke-width:2;"/>
   <line x1="904" y1="321" x2="894" y2="321" style="stroke:#bbb;stroke-width:1;"/>
   <line x1="794" y1="166" x2="784" y2="166" style="stroke:#bbb;stroke-width:1;"/>
   <line x1="894" y1="321" x2="794" y2="166" style="stroke:#bbb;stroke-width:1;"/>
   <line x1="896.5" y1="321" x2="900.03553390593" y2="324.53553390593" style="stroke:#bbb;stroke-width:2;"/>
   <line x1="896.5" y1="321" x2="900.03553390593" y2="317.46446609407" style="stroke:#bbb;stroke-width:2;"/>
   <line x1="789" y1="166" x2="792.53553390593" y2="169.53553390593" style="stroke:#bbb;stroke-width:2;"/>
   <line x1="789" y1="166" x2="792.53553390593" y2="162.46446609407" style="stroke:#bbb;stroke-width:2;"/>
   <line x1="1082" y1="341" x2="1092" y2="341" style="stroke:#0bf;stroke-width:1;"/>
   <line x1="1228" y1="96" x2="1238" y2="96" style="stroke:#0bf;stroke-width:1;"/>
   <line x1="1092" y1="341" x2="1228" y2="96" style="stroke:#0bf;stroke-width:1;"/>
   <line x1="1089.5" y1="341" x2="1085.9644660941" y2="344.53553390593" style="stroke:#0bf;stroke-width:2;"/>
   <line x1="1089.5" y1="341" x2="1085.9644660941" y2="337.46446609407" style="stroke:#0bf;stroke-width:2;"/>
   <line x1="1233" y1="96" x2="1229.4644660941" y2="99.535533905933" style="stroke:#0bf;stroke-width:2;"/>
   <line x1="1233" y1="96" x2="1229.4644660941" y2="92.464466094067" style="stroke:#0bf;stroke-width:2;"/>
   <line x1="904" y1="241" x2="894" y2="241" style="stroke:#b0b;stroke-width:1;"/>
   <line x1="856" y1="530" x2="846" y2="530" style="stroke:#b0b;stroke-width:1;"/>
   <line x1="894" y1="241" x2="856" y2="530" style="stroke:#b0b;stroke-width:1;"/>
   <line x1="896.5" y1="241" x2="900.03553390593" y2="244.53553390593" style="stroke:#b0b;stroke-width:2;"/>
   <line x1="896.5" y1="241" x2="900.03553390593" y2="237.46446609407" style="stroke:#b0b;stroke-width:2;"/>
   <line x1="851" y1="530" x2="854.53553390593" y2="533.53553390593" style="stroke:#b0b;stroke-width:2;"/>
   <line x1="851" y1="530" x2="854.53553390593" y2="526.46446609407" style="stroke:#b0b;stroke-width:2;"/>
   <line x1="1211" y1="297" x2="1201" y2="297" style="stroke:#0bf;stroke-width:1;"/>
   <line x1="1200" y1="484" x2="1210" y2="484" style="stroke:#0bf;stroke-width:1;"/>
   <line x1="1201" y1="297" x2="1200" y2="484" style="stroke:#0bf;stroke-width:1;"/>
   <line x1="1203.5" y1="297" x2="1207.0355339059" y2="300.53553390593" style="stroke:#0bf;stroke-width:2;"/>
   <line x1="1203.5" y1="297" x2="1207.0355339059" y2="293.46446609407" style="stroke:#0bf;stroke-width:2;"/>
   <line x1="1205" y1="484" x2="1201.4644660941" y2="487.53553390593" style="stroke:#0bf;stroke-width:2;"/>
   <line x1="1205" y1="484" x2="1201.4644660941" y2="480.46446609407" style="stroke:#0bf;stroke-width:2;"/>
   <line x1="1211" y1="277" x2="1201" y2="277" style="stroke:#0b0;stroke-width:1;"/>
   <line x1="1092" y1="221" x2="1082" y2="221" style="stroke:#0b0;stroke-width:1;"/>
   <line x1="1201" y1="277" x2="1092" y2="221" style="stroke:#0b0;stroke-width:1;"/>
   <line x1="1203.5" y1="277" x2="1207.0355339059" y2="280.53553390593" style="stroke:#0b0;stroke-width:2;"/>
   <line x1="1203.5" y1="277" x2="1207.0355339059" y2="273.46446609407" style="stroke:#0b0;stroke-width:2;"/>
   <line x1="1087" y1="221" x2="1090.5355339059" y2="224.53553390593" style="stroke:#0b0;stroke-width:2;"/>
   <line x1="1087" y1="221" x2="1090.5355339059" y2="217.46446609407" style="stroke:#0b0;stroke-width:2;"/>
   <line x1="723" y1="366" x2="733" y2="366" style="stroke:#c00;stroke-width:1;"/>
   <line x1="894" y1="221" x2="904" y2="221" style="stroke:#c00;stroke-width:1;"/>
   <line x1="733" y1="366" x2="894" y2="221" style="stroke:#c00;stroke-width:1;"/>
   <line x1="730.5" y1="366" x2="726.96446609407" y2="369.53553390593" style="stroke:#c00;stroke-width:2;"/>
   <line x1="730.5" y1="366" x2="726.96446609407" y2="362.46446609407" style="stroke:#c00;stroke-width:2;"/>
   <line x1="899" y1="221" x2="895.46446609407" y2="224.53553390593" style="stroke:#c00;stroke-width:2;"/>
   <line x1="899" y1="221" x2="895.46446609407" y2="217.46446609407" style="stroke:#c00;stroke-width:2;"/>
   <line x1="875" y1="101" x2="865" y2="101" style="stroke:#bbb;stroke-width:1;"/>
   <line x1="794" y1="166" x2="784" y2="166" style="stroke:#bbb;stroke-width:1;"/>
   <line x1="865" y1="101" x2="794" y2="166" style="stroke:#bbb;stroke-width:1;"/>
   <line x1="867.5" y1="101" x2="871.03553390593" y2="104.53553390593" style="stroke:#bbb;stroke-width:2;"/>
   <line x1="867.5" y1="101" x2="871.03553390593" y2="97.464466094067" style="stroke:#bbb;stroke-width:2;"/>
   <line x1="789" y1="166" x2="792.53553390593" y2="169.53553390593" style="stroke:#bbb;stroke-width:2;"/>
   <line x1="789" y1="166" x2="792.53553390593" y2="162.46446609407" style="stroke:#bbb;stroke-width:2;"/>
   <rect width="178" height="20" x="1210" y="454" style="fill:#007;stroke:black;"/>
   <text width="178" height="20" x="1215" y="468" style="fill:#fff;" font-family="Arial" font-size="16px"> devices</text>
   <rect width="178" height="20" x="1210" y="474" style="fill:#aea;stroke:black;"/>
   <text width="178" height="20" x="1215" y="488" style="fill:black;" font-family="Arial" font-size="16px">id</text>
   <rect width="178" height="20" x="1210" y="494" style="fill:none;stroke:black;"/>
   <text width="178" height="20" x="1215" y="508" style="fill:black;" font-family="Arial" font-size="16px">user_id</text>
   <rect width="178" height="20" x="1210" y="514" style="fill:none;stroke:black;"/>
   <text width="178" height="20" x="1215" y="528" style="fill:black;" font-family="Arial" font-size="16px">device_type</text>
   <rect width="178" height="20" x="1210" y="534" style="fill:none;stroke:black;"/>
   <text width="178" height="20" x="1215" y="548" style="fill:black;" font-family="Arial" font-size="16px">name</text>
   <rect width="178" height="20" x="1210" y="554" style="fill:none;stroke:black;"/>
   <text width="178" height="20" x="1215" y="568" style="fill:black;" font-family="Arial" font-size="16px">serial_number</text>
   <rect width="178" height="20" x="1210" y="574" style="fill:none;stroke:black;"/>
   <text width="178" height="20" x="1215" y="588" style="fill:black;" font-family="Arial" font-size="16px">check_date</text>
   <rect width="178" height="20" x="1210" y="594" style="fill:none;stroke:black;"/>
   <text width="178" height="20" x="1215" y="608" style="fill:black;" font-family="Arial" font-size="16px">document_file</text>
   <rect width="178" height="20" x="1210" y="614" style="fill:none;stroke:black;"/>
   <text width="178" height="20" x="1215" y="628" style="fill:black;" font-family="Arial" font-size="16px">created_at</text>
   <rect width="178" height="20" x="1210" y="634" style="fill:none;stroke:black;"/>
   <text width="178" height="20" x="1215" y="648" style="fill:black;" font-family="Arial" font-size="16px">updated_at</text>
   <rect width="178" height="20" x="88" y="384" style="fill:#007;stroke:black;"/>
   <text width="178" height="20" x="93" y="398" style="fill:#fff;" font-family="Arial" font-size="16px"> failed_jobs</text>
   <rect width="178" height="20" x="88" y="404" style="fill:#aea;stroke:black;"/>
   <text width="178" height="20" x="93" y="418" style="fill:black;" font-family="Arial" font-size="16px">id</text>
   <rect width="178" height="20" x="88" y="424" style="fill:none;stroke:black;"/>
   <text width="178" height="20" x="93" y="438" style="fill:black;" font-family="Arial" font-size="16px">uuid</text>
   <rect width="178" height="20" x="88" y="444" style="fill:none;stroke:black;"/>
   <text width="178" height="20" x="93" y="458" style="fill:black;" font-family="Arial" font-size="16px">connection</text>
   <rect width="178" height="20" x="88" y="464" style="fill:none;stroke:black;"/>
   <text width="178" height="20" x="93" y="478" style="fill:black;" font-family="Arial" font-size="16px">queue</text>
   <rect width="178" height="20" x="88" y="484" style="fill:none;stroke:black;"/>
   <text width="178" height="20" x="93" y="498" style="fill:black;" font-family="Arial" font-size="16px">payload</text>
   <rect width="178" height="20" x="88" y="504" style="fill:none;stroke:black;"/>
   <text width="178" height="20" x="93" y="518" style="fill:black;" font-family="Arial" font-size="16px">exception</text>
   <rect width="178" height="20" x="88" y="524" style="fill:none;stroke:black;"/>
   <text width="178" height="20" x="93" y="538" style="fill:black;" font-family="Arial" font-size="16px">failed_at</text>
   <rect width="178" height="20" x="87" y="583" style="fill:#007;stroke:black;"/>
   <text width="178" height="20" x="92" y="597" style="fill:#fff;" font-family="Arial" font-size="16px"> migrations</text>
   <rect width="178" height="20" x="87" y="603" style="fill:#aea;stroke:black;"/>
   <text width="178" height="20" x="92" y="617" style="fill:black;" font-family="Arial" font-size="16px">id</text>
   <rect width="178" height="20" x="87" y="623" style="fill:none;stroke:black;"/>
   <text width="178" height="20" x="92" y="637" style="fill:black;" font-family="Arial" font-size="16px">migration</text>
   <rect width="178" height="20" x="87" y="643" style="fill:none;stroke:black;"/>
   <text width="178" height="20" x="92" y="657" style="fill:black;" font-family="Arial" font-size="16px">batch</text>
   <rect width="178" height="20" x="606" y="136" style="fill:#007;stroke:black;"/>
   <text width="178" height="20" x="611" y="150" style="fill:#fff;" font-family="Arial" font-size="16px"> objects</text>
   <rect width="178" height="20" x="606" y="156" style="fill:#aea;stroke:black;"/>
   <text width="178" height="20" x="611" y="170" style="fill:black;" font-family="Arial" font-size="16px">id</text>
   <rect width="178" height="20" x="606" y="176" style="fill:none;stroke:black;"/>
   <text width="178" height="20" x="611" y="190" style="fill:black;" font-family="Arial" font-size="16px">name</text>
   <rect width="178" height="20" x="606" y="196" style="fill:none;stroke:black;"/>
   <text width="178" height="20" x="611" y="210" style="fill:black;" font-family="Arial" font-size="16px">parent_id</text>
   <rect width="178" height="20" x="606" y="216" style="fill:none;stroke:black;"/>
   <text width="178" height="20" x="611" y="230" style="fill:black;" font-family="Arial" font-size="16px">created_at</text>
   <rect width="178" height="20" x="606" y="236" style="fill:none;stroke:black;"/>
   <text width="178" height="20" x="611" y="250" style="fill:black;" font-family="Arial" font-size="16px">updated_at</text>
   <rect width="178" height="20" x="89" y="277" style="fill:#007;stroke:black;"/>
   <text width="178" height="20" x="94" y="291" style="fill:#fff;" font-family="Arial" font-size="16px"> password_resets</text>
   <rect width="178" height="20" x="89" y="297" style="fill:none;stroke:black;"/>
   <text width="178" height="20" x="94" y="311" style="fill:black;" font-family="Arial" font-size="16px">email</text>
   <rect width="178" height="20" x="89" y="317" style="fill:none;stroke:black;"/>
   <text width="178" height="20" x="94" y="331" style="fill:black;" font-family="Arial" font-size="16px">token</text>
   <rect width="178" height="20" x="89" y="337" style="fill:none;stroke:black;"/>
   <text width="178" height="20" x="94" y="351" style="fill:black;" font-family="Arial" font-size="16px">created_at</text>
   <rect width="178" height="20" x="88" y="40" style="fill:#007;stroke:black;"/>
   <text width="178" height="20" x="93" y="54" style="fill:#fff;" font-family="Arial" font-size="16px"> personal_access_tokens</text>
   <rect width="178" height="20" x="88" y="60" style="fill:#aea;stroke:black;"/>
   <text width="178" height="20" x="93" y="74" style="fill:black;" font-family="Arial" font-size="16px">id</text>
   <rect width="178" height="20" x="88" y="80" style="fill:none;stroke:black;"/>
   <text width="178" height="20" x="93" y="94" style="fill:black;" font-family="Arial" font-size="16px">tokenable_type</text>
   <rect width="178" height="20" x="88" y="100" style="fill:none;stroke:black;"/>
   <text width="178" height="20" x="93" y="114" style="fill:black;" font-family="Arial" font-size="16px">tokenable_id</text>
   <rect width="178" height="20" x="88" y="120" style="fill:none;stroke:black;"/>
   <text width="178" height="20" x="93" y="134" style="fill:black;" font-family="Arial" font-size="16px">name</text>
   <rect width="178" height="20" x="88" y="140" style="fill:none;stroke:black;"/>
   <text width="178" height="20" x="93" y="154" style="fill:black;" font-family="Arial" font-size="16px">token</text>
   <rect width="178" height="20" x="88" y="160" style="fill:none;stroke:black;"/>
   <text width="178" height="20" x="93" y="174" style="fill:black;" font-family="Arial" font-size="16px">abilities</text>
   <rect width="178" height="20" x="88" y="180" style="fill:none;stroke:black;"/>
   <text width="178" height="20" x="93" y="194" style="fill:black;" font-family="Arial" font-size="16px">last_used_at</text>
   <rect width="178" height="20" x="88" y="200" style="fill:none;stroke:black;"/>
   <text width="178" height="20" x="93" y="214" style="fill:black;" font-family="Arial" font-size="16px">created_at</text>
   <rect width="178" height="20" x="88" y="220" style="fill:none;stroke:black;"/>
   <text width="178" height="20" x="93" y="234" style="fill:black;" font-family="Arial" font-size="16px">updated_at</text>
   <rect width="178" height="20" x="904" y="191" style="fill:#007;stroke:black;"/>
   <text width="178" height="20" x="909" y="205" style="fill:#fff;" font-family="Arial" font-size="16px"> protocols</text>
   <rect width="178" height="20" x="904" y="211" style="fill:#aea;stroke:black;"/>
   <text width="178" height="20" x="909" y="225" style="fill:black;" font-family="Arial" font-size="16px">id</text>
   <rect width="178" height="20" x="904" y="231" style="fill:none;stroke:black;"/>
   <text width="178" height="20" x="909" y="245" style="fill:black;" font-family="Arial" font-size="16px">user_id</text>
   <rect width="178" height="20" x="904" y="251" style="fill:none;stroke:black;"/>
   <text width="178" height="20" x="909" y="265" style="fill:black;" font-family="Arial" font-size="16px">title</text>
   <rect width="178" height="20" x="904" y="271" style="fill:none;stroke:black;"/>
   <text width="178" height="20" x="909" y="285" style="fill:black;" font-family="Arial" font-size="16px">number</text>
   <rect width="178" height="20" x="904" y="291" style="fill:none;stroke:black;"/>
   <text width="178" height="20" x="909" y="305" style="fill:black;" font-family="Arial" font-size="16px">date</text>
   <rect width="178" height="20" x="904" y="311" style="fill:none;stroke:black;"/>
   <text width="178" height="20" x="909" y="325" style="fill:black;" font-family="Arial" font-size="16px">object_id</text>
   <rect width="178" height="20" x="904" y="331" style="fill:none;stroke:black;"/>
   <text width="178" height="20" x="909" y="345" style="fill:black;" font-family="Arial" font-size="16px">protocol_type_id</text>
   <rect width="178" height="20" x="904" y="351" style="fill:none;stroke:black;"/>
   <text width="178" height="20" x="909" y="365" style="fill:black;" font-family="Arial" font-size="16px">verdict</text>
   <rect width="178" height="20" x="904" y="371" style="fill:none;stroke:black;"/>
   <text width="178" height="20" x="909" y="385" style="fill:black;" font-family="Arial" font-size="16px">notes</text>
   <rect width="178" height="20" x="904" y="391" style="fill:none;stroke:black;"/>
   <text width="178" height="20" x="909" y="405" style="fill:black;" font-family="Arial" font-size="16px">created_at</text>
   <rect width="178" height="20" x="904" y="411" style="fill:none;stroke:black;"/>
   <text width="178" height="20" x="909" y="425" style="fill:black;" font-family="Arial" font-size="16px">updated_at</text>
   <rect width="178" height="20" x="1211" y="247" style="fill:#007;stroke:black;"/>
   <text width="178" height="20" x="1216" y="261" style="fill:#fff;" font-family="Arial" font-size="16px"> protocol_devices</text>
   <rect width="178" height="20" x="1211" y="267" style="fill:#aea;stroke:black;"/>
   <text width="178" height="20" x="1216" y="281" style="fill:black;" font-family="Arial" font-size="16px">protocol_id</text>
   <rect width="178" height="20" x="1211" y="287" style="fill:#aea;stroke:black;"/>
   <text width="178" height="20" x="1216" y="301" style="fill:black;" font-family="Arial" font-size="16px">device_id</text>
   <rect width="178" height="20" x="545" y="316" style="fill:#007;stroke:black;"/>
   <text width="178" height="20" x="550" y="330" style="fill:#fff;" font-family="Arial" font-size="16px"> protocol_next_tests</text>
   <rect width="178" height="20" x="545" y="336" style="fill:#aea;stroke:black;"/>
   <text width="178" height="20" x="550" y="350" style="fill:black;" font-family="Arial" font-size="16px">id</text>
   <rect width="178" height="20" x="545" y="356" style="fill:none;stroke:black;"/>
   <text width="178" height="20" x="550" y="370" style="fill:black;" font-family="Arial" font-size="16px">protocol_id</text>
   <rect width="178" height="20" x="545" y="376" style="fill:none;stroke:black;"/>
   <text width="178" height="20" x="550" y="390" style="fill:black;" font-family="Arial" font-size="16px">next_test_date</text>
   <rect width="178" height="20" x="545" y="396" style="fill:none;stroke:black;"/>
   <text width="178" height="20" x="550" y="410" style="fill:black;" font-family="Arial" font-size="16px">created_at</text>
   <rect width="178" height="20" x="545" y="416" style="fill:none;stroke:black;"/>
   <text width="178" height="20" x="550" y="430" style="fill:black;" font-family="Arial" font-size="16px">updated_at</text>
   <rect width="178" height="20" x="1238" y="66" style="fill:#007;stroke:black;"/>
   <text width="178" height="20" x="1243" y="80" style="fill:#fff;" font-family="Arial" font-size="16px"> protocol_types</text>
   <rect width="178" height="20" x="1238" y="86" style="fill:#aea;stroke:black;"/>
   <text width="178" height="20" x="1243" y="100" style="fill:black;" font-family="Arial" font-size="16px">id</text>
   <rect width="178" height="20" x="1238" y="106" style="fill:none;stroke:black;"/>
   <text width="178" height="20" x="1243" y="120" style="fill:black;" font-family="Arial" font-size="16px">name</text>
   <rect width="178" height="20" x="1238" y="126" style="fill:none;stroke:black;"/>
   <text width="178" height="20" x="1243" y="140" style="fill:black;" font-family="Arial" font-size="16px">created_at</text>
   <rect width="178" height="20" x="1238" y="146" style="fill:none;stroke:black;"/>
   <text width="178" height="20" x="1243" y="160" style="fill:black;" font-family="Arial" font-size="16px">updated_at</text>
   <rect width="178" height="20" x="875" y="51" style="fill:#007;stroke:black;"/>
   <text width="178" height="20" x="880" y="65" style="fill:#fff;" font-family="Arial" font-size="16px"> tests</text>
   <rect width="178" height="20" x="875" y="71" style="fill:#aea;stroke:black;"/>
   <text width="178" height="20" x="880" y="85" style="fill:black;" font-family="Arial" font-size="16px">id</text>
   <rect width="178" height="20" x="875" y="91" style="fill:none;stroke:black;"/>
   <text width="178" height="20" x="880" y="105" style="fill:black;" font-family="Arial" font-size="16px">object_id</text>
   <rect width="178" height="20" x="875" y="111" style="fill:none;stroke:black;"/>
   <text width="178" height="20" x="880" y="125" style="fill:black;" font-family="Arial" font-size="16px">created_at</text>
   <rect width="178" height="20" x="875" y="131" style="fill:none;stroke:black;"/>
   <text width="178" height="20" x="880" y="145" style="fill:black;" font-family="Arial" font-size="16px">updated_at</text>
   <rect width="178" height="20" x="668" y="500" style="fill:#007;stroke:black;"/>
   <text width="178" height="20" x="673" y="514" style="fill:#fff;" font-family="Arial" font-size="16px"> users</text>
   <rect width="178" height="20" x="668" y="520" style="fill:#aea;stroke:black;"/>
   <text width="178" height="20" x="673" y="534" style="fill:black;" font-family="Arial" font-size="16px">id</text>
   <rect width="178" height="20" x="668" y="540" style="fill:none;stroke:black;"/>
   <text width="178" height="20" x="673" y="554" style="fill:black;" font-family="Arial" font-size="16px">name</text>
   <rect width="178" height="20" x="668" y="560" style="fill:none;stroke:black;"/>
   <text width="178" height="20" x="673" y="574" style="fill:black;" font-family="Arial" font-size="16px">email</text>
   <rect width="178" height="20" x="668" y="580" style="fill:none;stroke:black;"/>
   <text width="178" height="20" x="673" y="594" style="fill:black;" font-family="Arial" font-size="16px">email_verified_at</text>
   <rect width="178" height="20" x="668" y="600" style="fill:none;stroke:black;"/>
   <text width="178" height="20" x="673" y="614" style="fill:black;" font-family="Arial" font-size="16px">password</text>
   <rect width="178" height="20" x="668" y="620" style="fill:none;stroke:black;"/>
   <text width="178" height="20" x="673" y="634" style="fill:black;" font-family="Arial" font-size="16px">remember_token</text>
   <rect width="178" height="20" x="668" y="640" style="fill:none;stroke:black;"/>
   <text width="178" height="20" x="673" y="654" style="fill:black;" font-family="Arial" font-size="16px">created_at</text>
   <rect width="178" height="20" x="668" y="660" style="fill:none;stroke:black;"/>
   <text width="178" height="20" x="673" y="674" style="fill:black;" font-family="Arial" font-size="16px">updated_at</text>
</svg>
